<svg xmlns="http://www.w3.org/2000/svg" viewBox="0 0 396.85 82.74"><defs><style>.cls-1{fill:#122539;}.cls-2{fill:#fff;}.cls-3{fill:#ffcc06;}.cls-4{fill:#abd155;}</style></defs><title>logo_ansky_pi</title><g id="Layer_2" data-name="Layer 2"><g id="Layer_1-2" data-name="Layer 1"><path class="cls-1" d="M259,35.4c-1.95,0-2.77.66-2.82,5.58h5.59C261.76,36,261,35.4,259,35.4Z"/><path class="cls-1" d="M206.73,35.4c-1.95,0-2.77.66-2.82,5.58h5.59C209.5,36,208.78,35.4,206.73,35.4Z"/><path class="cls-1" d="M30.52,26.07c-.31,1.74-1,4.51-1.75,7.33l-1.64,6.35H33.9c.05,0-1.64-6.35-1.64-6.35C31.49,30.58,30.82,27.91,30.52,26.07Z"/><path class="cls-1" d="M167.83,29.24c0-4.3-1-5.43-3.43-5.43h-5.13V34.73h5.13C166.75,34.73,167.83,33.55,167.83,29.24Z"/><path class="cls-1" d="M165.16,39.19h-5.89V50.77h5.89c2.36,0,3.49-1.28,3.49-5.79S167.47,39.19,165.16,39.19Z"/><path class="cls-2" d="M34.82,18.22H27.7l-9,32.2H16.21V56h12.1V50.67h-4s1.64-6.15,1.59-6.15h9.33l1.59,6.15H32.31V56h14V50.42H43.9ZM27.13,39.75l1.64-6.35c.72-2.82,1.44-5.59,1.75-7.33.3,1.84,1,4.51,1.74,7.33,0,0,1.69,6.35,1.64,6.35Z"/><path class="cls-2" d="M68.94,35.55c0-2.77-1.34-4.36-4.77-4.36a16.7,16.7,0,0,0-7.79,2.46l-.67-2.1H48.48V37h2V50.57h-2V56h9.85V50.57H57V37.24a10.25,10.25,0,0,1,3.44-.61c1.38,0,1.84.25,1.84,1.07V50.57H61V56h9.79V50.57H68.94Z"/><path class="cls-2" d="M83.29,41c-4.1-1.18-4.51-1.69-4.51-3.48,0-1.59.57-2.26,2.51-2.26.82,0,2.16,0,2.41.1v3.44h6V32a37,37,0,0,0-8.66-.82c-6.61,0-8.46,2.05-8.46,7.18,0,4.66,1.33,6.05,6.82,7.79,4.41,1.44,5,1.8,5,3.69,0,2.15-.61,2.46-3,2.46a21.3,21.3,0,0,1-2.26-.1V48.57h-6.3v7a42.62,42.62,0,0,0,8.56.72c7.38,0,9.12-2,9.12-7.49C90.57,44.42,89.5,42.78,83.29,41Z"/><polygon class="cls-2" points="107.66 40.93 111.3 37.04 114.38 37.04 114.38 31.55 104.49 31.55 104.49 36.32 106.79 36.32 101.1 42.57 101.1 18.48 92.64 18.48 92.64 24.02 94.59 24.02 94.59 50.57 92.64 50.57 92.64 56 103.25 56 103.25 50.83 101.1 50.83 101.1 47.65 103.05 45.6 105.97 50.98 105.97 56 115.15 56 115.15 50.57 113.1 50.57 107.66 40.93"/><path class="cls-2" d="M129.53,36.73h1.95l-2,7.33c-.56,2.2-1,3.9-1.28,5.64a46.58,46.58,0,0,0-1.38-5.64l-2.16-7.33h2.16V31.55H116.41V37h1.69l6.67,18.66c-.31,1.23-1.08,3.48-1.08,3.48H119.9v5.33h12V59.18h-2.35L136.71,37h1.64V31.55h-8.82Z"/><path class="cls-2" d="M169.06,36.52c4.1-.71,5.44-3,5.44-8.4,0-7.39-1.85-9.64-9.54-9.64H149.73v5.69h2.67V50.42h-2.67V56h16.2c7.74,0,9.59-3.28,9.59-10.51C175.52,38.78,173.52,37.14,169.06,36.52Zm-9.79-12.71h5.13c2.41,0,3.43,1.13,3.43,5.43s-1.08,5.49-3.43,5.49h-5.13Zm5.89,27h-5.89V39.19h5.89c2.31,0,3.49,1.33,3.49,5.79S167.52,50.77,165.16,50.77Z"/><path class="cls-2" d="M185,31.55h-7.23V37h1.95V50.57h-1.95V56h11.28V50.57h-2.71v-13a11.17,11.17,0,0,1,3-.51v3.38h5.9V31a21.42,21.42,0,0,0-9.49,3Z"/><path class="cls-2" d="M206.78,31c-7.23,0-9.48,2.41-9.48,12.76s2.15,12.56,9.53,12.56a51.66,51.66,0,0,0,8.61-.67V48.57h-6.3v3.54a18.76,18.76,0,0,1-2.31.1c-2.46,0-2.92-1.13-3-7.28h11.79V42.06C215.65,33,213.85,31,206.78,31Zm-2.87,10c.05-4.92.87-5.58,2.82-5.58S209.5,36,209.5,41Z"/><path class="cls-2" d="M238.94,36.73h2.31L240.12,43c-.36,2.1-.72,4.1-.82,5.33C239.1,47,238.58,45,238,43l-2.31-8H231.2l-2.3,8a47.08,47.08,0,0,0-1.23,5.33c-.16-1.43-.47-3.23-.88-5.33l-1.23-6.25h2.16V31.55H217.51V37h1.9l4.36,19.07h5.84l2.1-7.75a35.19,35.19,0,0,0,1.18-5.22c.26,1.64.62,3.17,1.08,5.17l1.9,7.8h5.79L245.91,37h1.9V31.55h-8.87Z"/><path class="cls-2" d="M259,31c-7.23,0-9.48,2.41-9.48,12.76s2.15,12.56,9.53,12.56a51.66,51.66,0,0,0,8.61-.67V48.57h-6.3v3.54a18.76,18.76,0,0,1-2.31.1c-2.46,0-2.92-1.13-3-7.28h11.79V42.06C267.91,33,266.11,31,259,31Zm-2.87,10c.05-4.92.87-5.58,2.82-5.58s2.77.56,2.77,5.58Z"/><path class="cls-2" d="M277.27,31.55H270V37H272V50.57H270V56h11.28V50.57H278.6v-13a11.3,11.3,0,0,1,3-.51v3.38h5.89V31A21.42,21.42,0,0,0,278,34Z"/><path class="cls-2" d="M302.38,36.73h1.95l-2,7.33c-.56,2.2-1,3.9-1.28,5.64a46.79,46.79,0,0,0-1.39-5.64l-2.15-7.33h2.15V31.55h-10.4V37H291l6.66,18.66c-.3,1.23-1.07,3.48-1.07,3.48h-3.8v5.33h12.05V59.18h-2.36L309.56,37h1.64V31.55h-8.82Z"/><path class="cls-3" d="M387.57,2.82H326.92v77.1h60.65A6.47,6.47,0,0,0,394,73.46V9.28A6.47,6.47,0,0,0,387.57,2.82ZM352.06,14.13a4.32,4.32,0,0,1,5.45,4c0,.66-.26,1.12-1,1.17a1.1,1.1,0,0,1-1.24-.93c-.38-1.61-1.1-2.22-2.42-2.1a2.73,2.73,0,0,0-2.49,2.6,3.93,3.93,0,0,0,5.31,3.84,5.17,5.17,0,0,0,3.62-4.81c.05-1.71.11-3.42.19-5.13,0-.59,0-1.3.93-1.26s1.1.59,1.11,1.37c0,1.84.05,3.7.21,5.53A5,5,0,0,0,368,22.76a3.64,3.64,0,0,0,2.59-3,2.89,2.89,0,0,0-1.11-2.95,2.2,2.2,0,0,0-3.7,1.14c-.24.77-.51,1.6-1.54,1.31s-.8-1.21-.64-1.94A4.44,4.44,0,0,1,367.93,14a5.4,5.4,0,0,1,4.92,4.32c.59,3.6-2.34,6.92-7.19,6.92-1.25,0-3.1-1.06-4.61-2.77-.48-.54-.69-.54-1.14.06a7.52,7.52,0,0,1-7.53,2.43,6.19,6.19,0,0,1-4.27-5.34A5.16,5.16,0,0,1,352.06,14.13ZM389,48.83s-1.21.47-1.37.55c-1.17.52-1.59,1.27-1.07,2.48.06.13,1.69,3.3,1.69,3.3l-2.38,1.39-4-6.37a1.8,1.8,0,0,0-1.91-1,1.75,1.75,0,0,0-1.42,1.38c-.6,1.71-1.47,3.17-3.41,3.64-.44.11-.44.52-.5.89a18.65,18.65,0,0,1-4.24,9.31c-.82.93-1.59,1.34-2.55.2-.47-.56-.7-.17-.93.26a17,17,0,0,1-5,5.74,2.16,2.16,0,0,1-3,0,17.54,17.54,0,0,1-5.24-6.48c-1.79,1.54-2.17,1.5-3.61-.3a19.48,19.48,0,0,1-3.72-8.49c-.1-.48-.16-.94-.68-1.15-3-1.18-3.5-3.73-3.49-6.51a14,14,0,0,1,.81-4.44c.26-.74.23-1.19-.71-1.09-1.29.14-1.67-.44-1.65-1.7.15-6.7,3.93-11.73,10.89-13.81a28.8,28.8,0,0,1,20.49,1c5.43,2.44,8.12,6.89,8.25,12.87,0,1.2-.44,1.71-1.59,1.58-1-.1-.94.37-.77,1.08.45,1.85.55,2.73,2,3,.4.09,3.11.12,3.92.13a1.07,1.07,0,0,0,.55-.14c.46-.28.52-.81.16-1.38s.43-1.09,1.33-1.09c0-.35-.76-.86-.76-.86V33.49h2.76v9.38s-.88.48-.88.84c1.24,0,1.87.61,1.18,1.56a.16.16,0,0,0,0,.07.6.6,0,0,0,.31.83l.49.23Z"/><path class="cls-1" d="M388.18,45.34a.16.16,0,0,1,0-.07c.69-1,.06-1.53-1.18-1.56,0-.36.88-.84.88-.84V33.49h-2.76v9.38s.76.51.76.86c-.9,0-1.73.45-1.33,1.09s.3,1.1-.16,1.38a1.07,1.07,0,0,1-.55.14c-.81,0-3.52,0-3.92-.13-1.44-.31-1.54-1.19-2-3-.17-.71-.19-1.18.77-1.08,1.15.13,1.62-.38,1.59-1.58-.13-6-2.82-10.43-8.25-12.87a28.8,28.8,0,0,0-20.49-1c-7,2.08-10.74,7.11-10.89,13.81,0,1.26.36,1.84,1.65,1.7.94-.1,1,.35.71,1.09a14,14,0,0,0-.81,4.44c0,2.78.49,5.33,3.49,6.51.52.21.58.67.68,1.15a19.48,19.48,0,0,0,3.72,8.49c1.44,1.8,1.82,1.84,3.61.3A17.54,17.54,0,0,0,359,70.58a2.16,2.16,0,0,0,3,0,17,17,0,0,0,5-5.74c.23-.43.46-.82.93-.26,1,1.14,1.73.73,2.55-.2a18.65,18.65,0,0,0,4.24-9.31c.06-.37.06-.78.5-.89,1.94-.47,2.81-1.93,3.41-3.64A1.75,1.75,0,0,1,380,49.18a1.8,1.8,0,0,1,1.91,1l4,6.37,2.38-1.39s-1.63-3.17-1.69-3.3c-.52-1.21-.1-2,1.07-2.48.16-.08,1.37-.55,1.37-.55V46.4l-.49-.23A.6.6,0,0,1,388.18,45.34ZM366,38.43c.41.28.28.74.2,1.13a10.23,10.23,0,0,1-5,6.95.94.94,0,0,1-1.05.05,10,10,0,0,1-5.18-7.18c-.07-.4-.12-.79.32-1.07a13.69,13.69,0,0,0,5.32-6.56A15.07,15.07,0,0,0,366,38.43Zm-1.14,8.64c1.36,1.38,1.18,2.6.23,4.12a35.07,35.07,0,0,1-3.42,5.2c-.74.82-1.35.87-2.15,0a28.58,28.58,0,0,1-4.31-7c-.28-.59,1.15-3.18,1.7-3.15l.23.15c.11.08.21.18.32.25,3.59,2.43,2.75,2.22,5.9.2C364,46.39,364.23,46.49,364.81,47.07Zm-21.65-9a11.52,11.52,0,0,1,6.67-8.42,22.31,22.31,0,0,1,9.07-2c.69,0,.84.18.75.85-.67,5.27-4.55,9.31-10.5,10.85a18.83,18.83,0,0,1-4.48.62C342.79,40,342.78,40,343.16,38.06Zm1.31,10.57a7.26,7.26,0,0,1,0-.8,23.22,23.22,0,0,1,1.11-5.41,1.42,1.42,0,0,1,1.32-1.15,21.43,21.43,0,0,0,5.15-1.38c.82-.32,1.27-.33,1.44.73a9.12,9.12,0,0,0,1.65,3.54,1.17,1.17,0,0,1,0,1.45,15.38,15.38,0,0,1-6.9,6C346,52.68,344.59,51.59,344.47,48.63Zm7.89,13.51c-.23.26-.4.37-.68,0a18.16,18.16,0,0,1-3.19-7.89c-.12-.89.25-1.13.65-1.33a19.05,19.05,0,0,0,3.9-2.47c.48-.4.75-.27,1,.24a41.59,41.59,0,0,0,3,5.21A.75.75,0,0,1,357,57Zm13,.81a12.18,12.18,0,0,1-3.85,5.19c-.47.37-1,.67-1.57.27a10.73,10.73,0,0,1-4.44-6.69,2,2,0,0,1,.75-1.5c.38-.43.78-.84,1.12-1.3.62-.84,1.21-1.35,2.3-.57a1.8,1.8,0,0,0,2.17-.21c.65-.51,1-.31,1.44.27a9.79,9.79,0,0,0,1.53,1.74A2.18,2.18,0,0,1,365.33,63Zm4.18-1c-.29.42-.54.5-.93.05-1.45-1.66-2.93-3.31-4.42-5a.83.83,0,0,1-.11-1.22,29.32,29.32,0,0,0,2.82-5c.27-.6.56-.74,1.12-.28A17.82,17.82,0,0,0,371.91,53c.6.27.58.75.59,1.56A17,17,0,0,1,369.51,62Zm5.62-10.23c-1.42.86-2.73-.14-3.93-.81a16.06,16.06,0,0,1-5.36-5,1.31,1.31,0,0,1,0-1.72,10.51,10.51,0,0,0,1.8-4.12c.11-.54.31-.64.82-.44a26.09,26.09,0,0,0,6,1.63,1,1,0,0,1,.85.75,17.09,17.09,0,0,1,1.21,6.41C376.46,49.23,376.57,50.88,375.13,51.74ZM363.86,34.21a12.64,12.64,0,0,1-2.33-5.3c-.27-1.38-.26-1.38,1.15-1.32,4.38.33,8.48,1.4,11.87,4.38a9.82,9.82,0,0,1,3.51,7c0,.45.05.93-.6.92C372.16,39.84,367.31,38.67,363.86,34.21Z"/><path class="cls-1" d="M352.38,24.93a7.52,7.52,0,0,0,7.53-2.43c.45-.6.66-.6,1.14-.06,1.51,1.71,3.36,2.76,4.61,2.77,4.85,0,7.78-3.32,7.19-6.92A5.4,5.4,0,0,0,367.93,14a4.44,4.44,0,0,0-4.33,3.39c-.16.73-.4,1.66.64,1.94s1.3-.54,1.54-1.31a2.2,2.2,0,0,1,3.7-1.14,2.89,2.89,0,0,1,1.11,2.95,3.64,3.64,0,0,1-2.59,3,5,5,0,0,1-6.24-4.31c-.16-1.83-.17-3.69-.21-5.53,0-.78-.25-1.33-1.11-1.37s-.9.67-.93,1.26c-.08,1.71-.14,3.42-.19,5.13a5.17,5.17,0,0,1-3.62,4.81,3.93,3.93,0,0,1-5.31-3.84,2.73,2.73,0,0,1,2.49-2.6c1.32-.12,2,.49,2.42,2.1a1.1,1.1,0,0,0,1.24.93c.71-.05,1-.51,1-1.17a4.32,4.32,0,0,0-5.45-4,5.16,5.16,0,0,0-3.95,5.46A6.19,6.19,0,0,0,352.38,24.93Z"/><path class="cls-4" d="M349.15,39.31c6-1.54,9.83-5.58,10.5-10.85.09-.67-.06-.87-.75-.85a22.31,22.31,0,0,0-9.07,2,11.52,11.52,0,0,0-6.67,8.42c-.38,1.89-.37,1.89,1.51,1.87A18.83,18.83,0,0,0,349.15,39.31Z"/><path class="cls-4" d="M378.06,39a9.82,9.82,0,0,0-3.51-7c-3.39-3-7.49-4-11.87-4.38-1.41-.06-1.42-.06-1.15,1.32a12.64,12.64,0,0,0,2.33,5.3c3.45,4.46,8.3,5.63,13.6,5.7C378.11,39.92,378.08,39.44,378.06,39Zm-10.64-8.5c-.11.6-.55.71-1.06.63-.86-.13-1.71-.32-2.57-.43-.63-.09-1.33-.18-1.19-1s.9-.45,1.43-.6l2.65.52C367.14,29.71,367.51,29.92,367.42,30.49Zm8.4,8c-.6.21-.93-.3-1.11-.78A9.54,9.54,0,0,0,369,32c-.46-.18-1-.44-.79-1.1.11-.46.48-.51.95-.52a8.66,8.66,0,0,1,1,.3c2.86,1.37,5.08,3.35,6,6.53C376.24,37.66,376.45,38.27,375.82,38.49Z"/><path class="cls-4" d="M355.19,38.31c-.44.28-.39.67-.32,1.07a10,10,0,0,0,5.18,7.18.94.94,0,0,0,1.05-.05,10.23,10.23,0,0,0,5-6.95c.08-.39.21-.85-.2-1.13a15.07,15.07,0,0,1-5.44-6.68A13.69,13.69,0,0,1,355.19,38.31Z"/><path class="cls-4" d="M355.18,45.61a1.17,1.17,0,0,0,0-1.45,9.12,9.12,0,0,1-1.65-3.54c-.17-1.06-.62-1-1.44-.73a21.43,21.43,0,0,1-5.15,1.38,1.42,1.42,0,0,0-1.32,1.15,23.22,23.22,0,0,0-1.11,5.41,7.26,7.26,0,0,0,0,.8c.12,3,1.48,4,3.81,3A15.38,15.38,0,0,0,355.18,45.61Z"/><path class="cls-4" d="M374.44,41.33a26.09,26.09,0,0,1-6-1.63c-.51-.2-.71-.1-.82.44a10.51,10.51,0,0,1-1.8,4.12,1.31,1.31,0,0,0,0,1.72,16.06,16.06,0,0,0,5.36,5c1.2.67,2.51,1.67,3.93.81s1.33-2.51,1.37-3.25a17.09,17.09,0,0,0-1.21-6.41A1,1,0,0,0,374.44,41.33Zm-.09,7.32c-.86.08-.64-.7-.75-1.16-.25-1.08-.44-2.17-.69-3.24-.1-.46-.07-.8.41-1s.75.18.88.56a12.92,12.92,0,0,1,.7,3.57C374.78,47.82,375.2,48.56,374.35,48.65Z"/><path class="cls-4" d="M364.78,60.15a9.79,9.79,0,0,1-1.53-1.74c-.43-.58-.79-.78-1.44-.27a1.8,1.8,0,0,1-2.17.21c-1.09-.78-1.68-.27-2.3.57-.34.46-.74.87-1.12,1.3a2,2,0,0,0-.75,1.5,10.73,10.73,0,0,0,4.44,6.69c.56.4,1.1.1,1.57-.27A12.18,12.18,0,0,0,365.33,63,2.18,2.18,0,0,0,364.78,60.15Zm-1.85,4.08a3,3,0,0,1-1.7,1.82c-.44.12-.54-.37-.5-.89.24-.71.56-1.52,1.49-1.7C362.64,63.38,363.09,63.9,362.93,64.23Z"/><path class="cls-4" d="M357.41,46.63c-.11-.07-.21-.17-.32-.25l-.23-.15c-.55,0-2,2.56-1.7,3.15a28.58,28.58,0,0,0,4.31,7c.8.87,1.41.82,2.15,0a35.07,35.07,0,0,0,3.42-5.2c.95-1.52,1.13-2.74-.23-4.12-.58-.58-.81-.68-1.5-.24C360.16,48.85,361,49.06,357.41,46.63Z"/><path class="cls-4" d="M357.06,55.9a41.59,41.59,0,0,1-3-5.21c-.24-.51-.51-.64-1-.24a19.05,19.05,0,0,1-3.9,2.47c-.4.2-.77.44-.65,1.33a18.16,18.16,0,0,0,3.19,7.89c.28.37.45.26.68,0L357,57A.75.75,0,0,0,357.06,55.9Z"/><path class="cls-4" d="M371.91,53A17.82,17.82,0,0,1,368,50.6c-.56-.46-.85-.32-1.12.28a29.32,29.32,0,0,1-2.82,5,.83.83,0,0,0,.11,1.22c1.49,1.64,3,3.29,4.42,5,.39.45.64.37.93-.05a17,17,0,0,0,3-7.38C372.49,53.78,372.51,53.3,371.91,53Zm-1.26,2.75c-.13.41-.31,1.12-.57,1.8a.69.69,0,0,1-.88.47c-.39-.14-.4-.51-.35-.85a5.41,5.41,0,0,1,.7-2.07.66.66,0,0,1,.74-.39C370.65,54.84,370.66,55.16,370.65,55.78Z"/><path class="cls-1" d="M370.12,30.66a8.66,8.66,0,0,0-1-.3c-.47,0-.84.06-.95.52-.17.66.33.92.79,1.1a9.54,9.54,0,0,1,5.72,5.73c.18.48.51,1,1.11.78s.42-.83.29-1.3C375.2,34,373,32,370.12,30.66Z"/><path class="cls-1" d="M366.68,29.62,364,29.1c-.53.15-1.31-.2-1.43.6s.56.9,1.19,1c.86.11,1.71.3,2.57.43.51.08.95,0,1.06-.63S367.14,29.71,366.68,29.62Z"/><path class="cls-1" d="M374.9,47.39a12.92,12.92,0,0,0-.7-3.57c-.13-.38-.34-.77-.88-.56s-.51.53-.41,1c.25,1.07.44,2.16.69,3.24.11.46-.11,1.24.75,1.16S374.78,47.82,374.9,47.39Z"/><path class="cls-1" d="M362.22,63.46c-.93.18-1.25,1-1.49,1.7,0,.52.06,1,.5.89a3,3,0,0,0,1.7-1.82C363.09,63.9,362.64,63.38,362.22,63.46Z"/><path class="cls-1" d="M370.29,54.74a.66.66,0,0,0-.74.39,5.41,5.41,0,0,0-.7,2.07c-.05.34,0,.71.35.85a.69.69,0,0,0,.88-.47c.26-.68.44-1.39.57-1.8C370.66,55.16,370.65,54.84,370.29,54.74Z"/><path class="cls-1" d="M387.57,0H9.28A9.29,9.29,0,0,0,0,9.28V73.46a9.29,9.29,0,0,0,9.28,9.28H387.57a9.29,9.29,0,0,0,9.28-9.28V9.28A9.29,9.29,0,0,0,387.57,0Zm-85,16.89a.83.83,0,0,1,.26-.61.85.85,0,0,1,.62-.26h2.26a3.11,3.11,0,0,1,1.16.21,2.66,2.66,0,0,1,.9.59,2.56,2.56,0,0,1,.59.91,3.22,3.22,0,0,1,.21,1.18,3.28,3.28,0,0,1-.2,1.16,2.59,2.59,0,0,1-.58.89,2.68,2.68,0,0,1-.91.58,3.34,3.34,0,0,1-1.17.2H304v3.17a.7.7,0,0,1-.22.51.72.72,0,0,1-1.22-.51Zm-4.68,3.63a2,2,0,0,1,.15-.79,2.06,2.06,0,0,1,.43-.64,2.13,2.13,0,0,1,.63-.43,2.07,2.07,0,0,1,.8-.15,5.36,5.36,0,0,1,1,.11.68.68,0,0,1,.4.23.69.69,0,0,1,.16.43.65.65,0,0,1-.67.65h-.1l-.13,0-.33-.07a1.37,1.37,0,0,0-.34,0,.63.63,0,0,0-.62.62v4.52a.69.69,0,0,1-.21.5.66.66,0,0,1-.48.2.69.69,0,0,1-.5-.2.68.68,0,0,1-.2-.5Zm-6.88.69a2.57,2.57,0,0,1,2.7-2.7,2.58,2.58,0,0,1,2,.76,2.47,2.47,0,0,1,.56.85,2.94,2.94,0,0,1,.2,1.09v.64a.85.85,0,0,1-.26.62.84.84,0,0,1-.62.25h-3.15a2.8,2.8,0,0,0,.07.7,1.34,1.34,0,0,0,.2.47,1.24,1.24,0,0,0,1,.45,2.66,2.66,0,0,0,.75-.1,4.61,4.61,0,0,0,.71-.25.83.83,0,0,1,.28-.06.65.65,0,0,1,.46.18.57.57,0,0,1,.21.45.82.82,0,0,1-.08.35.62.62,0,0,1-.27.26,4.81,4.81,0,0,1-2.06.46,2.57,2.57,0,0,1-2.7-2.72Zm-13.84-4.32a.82.82,0,0,1,.25-.61A.85.85,0,0,1,278,16h2.21a3.14,3.14,0,0,1,1.08.19,2.57,2.57,0,0,1,.85.54,2.39,2.39,0,0,1,.54.83,3,3,0,0,1,.19,1.06,2.38,2.38,0,0,1-.23,1,2.3,2.3,0,0,1-.68.86,2.51,2.51,0,0,1,.89,1,2.75,2.75,0,0,1,.27,1.18,3.07,3.07,0,0,1-.2,1.16,2.49,2.49,0,0,1-1.46,1.45,3.11,3.11,0,0,1-1.16.2H278a.85.85,0,0,1-.87-.86Zm-4.69-.3a.7.7,0,1,1,1.39,0v2.05h1.31a.72.72,0,0,1,.5.19.62.62,0,0,1,.2.48.64.64,0,0,1-.19.49.72.72,0,0,1-.51.18h-1.31v3.53a.94.94,0,0,0,.18.61.52.52,0,0,0,.44.22h.24l.17,0,.14,0a.44.44,0,0,1,.17,0,.67.67,0,0,1,.46.17.57.57,0,0,1,.21.47.58.58,0,0,1-.17.44.86.86,0,0,1-.42.23,4.43,4.43,0,0,1-.8.08,1.85,1.85,0,0,1-.78-.16A1.76,1.76,0,0,1,273,25a1.91,1.91,0,0,1-.44-.66,2.35,2.35,0,0,1-.15-.86Zm-7.86,3.49a1.16,1.16,0,0,0-.83-.29,3.5,3.5,0,0,0-.79.08,2.23,2.23,0,0,0-.67.29.67.67,0,0,1-.84-.06.55.55,0,0,1-.2-.43.7.7,0,0,1,.09-.35.59.59,0,0,1,.25-.27,4,4,0,0,1,1.08-.43,6.48,6.48,0,0,1,1.26-.11,2.49,2.49,0,0,1,1,.19,1.89,1.89,0,0,1,.72.51,2,2,0,0,1,.45.73,2.58,2.58,0,0,1,.16.87v3.64a.85.85,0,0,1-.17.51.88.88,0,0,1-.43.32,6.84,6.84,0,0,1-1.06.26,7.08,7.08,0,0,1-1.13.09,2.88,2.88,0,0,1-1.93-.6,2,2,0,0,1-.7-1.6,1.92,1.92,0,0,1,.7-1.56,2.93,2.93,0,0,1,1.93-.59h1.39v-.47A1,1,0,0,0,264.59,20.08Zm-8,.44a2,2,0,0,1,.16-.79,1.76,1.76,0,0,1,.43-.64,2,2,0,0,1,.63-.43,2.07,2.07,0,0,1,.8-.15,5.36,5.36,0,0,1,1,.11.71.71,0,0,1,.4.23.68.68,0,0,1,.15.43.63.63,0,0,1-.66.65h-.11l-.12,0-.34-.07a1.29,1.29,0,0,0-.33,0,.63.63,0,0,0-.62.62v4.52a.69.69,0,0,1-.21.5.66.66,0,0,1-.48.2.7.7,0,0,1-.71-.7Zm-16.16.54a.11.11,0,0,1,0,0,.13.13,0,0,1,0-.06.33.33,0,0,1,.09-.22.27.27,0,0,1,.24-.1.35.35,0,0,1,.18.05.33.33,0,0,1,.12.16l1.31,3.73,1.12-3.72a.3.3,0,0,1,.12-.17.31.31,0,0,1,.19-.06.33.33,0,0,1,.23.09.29.29,0,0,1,.1.23V21s0,0,0,.05l-1.7,5.38a1.64,1.64,0,0,1-.61.87,1.75,1.75,0,0,1-1.06.32.32.32,0,0,1-.23-.09.31.31,0,0,1,0-.44.43.43,0,0,1,.23-.09,1.07,1.07,0,0,0,1.07-.76l.23-.75Zm-4.12-2a.32.32,0,0,1,.09-.23.34.34,0,0,1,.23-.1.33.33,0,0,1,.23.1.29.29,0,0,1,.1.23v1.87a2.36,2.36,0,0,1,.52-.21,2.24,2.24,0,0,1,.57-.08,1.71,1.71,0,0,1,1.27.47,1.75,1.75,0,0,1,.47,1.28v1.47a2,2,0,0,1-.12.71,1.5,1.5,0,0,1-.36.55,1.64,1.64,0,0,1-.55.36,1.8,1.8,0,0,1-.71.13,4.41,4.41,0,0,1-1.44-.24.47.47,0,0,1-.21-.16.41.41,0,0,1-.09-.26Zm-5,3.33a1.75,1.75,0,0,1,.47-1.28,1.71,1.71,0,0,1,1.27-.47,2.12,2.12,0,0,1,.57.08,2.44,2.44,0,0,1,.53.21V19a.32.32,0,0,1,.09-.23.33.33,0,0,1,.23-.1.34.34,0,0,1,.23.1.32.32,0,0,1,.09.23v5.89a.4.4,0,0,1-.08.26.5.5,0,0,1-.22.16,4.23,4.23,0,0,1-.7.18,4.52,4.52,0,0,1-.74.06,1.8,1.8,0,0,1-.71-.13,1.75,1.75,0,0,1-.55-.36,1.48,1.48,0,0,1-.35-.55,1.8,1.8,0,0,1-.13-.71Zm-4.23,0a2,2,0,0,1,.12-.71,1.48,1.48,0,0,1,.35-.55,1.63,1.63,0,0,1,.56-.36,2,2,0,0,1,1.42,0,1.5,1.5,0,0,1,.55.36,1.48,1.48,0,0,1,.35.55,1.76,1.76,0,0,1,.13.71v.49a.46.46,0,0,1-.13.32.42.42,0,0,1-.32.13h-2.38v.53a1.14,1.14,0,0,0,.29.83,1,1,0,0,0,.8.32,2.1,2.1,0,0,0,.56-.08,3.35,3.35,0,0,0,.53-.19.31.31,0,0,1,.13,0,.32.32,0,0,1,.23.09.29.29,0,0,1,.1.22.28.28,0,0,1-.18.28,2.83,2.83,0,0,1-.67.24,4,4,0,0,1-.7.07,1.79,1.79,0,0,1-1.27-.49,1.48,1.48,0,0,1-.35-.55,2,2,0,0,1-.12-.71Zm-2.79-.43a1.33,1.33,0,0,1,.1-.54,1.51,1.51,0,0,1,.27-.42,1.16,1.16,0,0,1,.39-.26,1.19,1.19,0,0,1,.49-.1,3.4,3.4,0,0,1,.69.08.27.27,0,0,1,.18.11.31.31,0,0,1,.07.2.29.29,0,0,1-.09.22.32.32,0,0,1-.23.09H226l-.08,0-.23,0h-.23a.56.56,0,0,0-.42.18.64.64,0,0,0-.18.49v3.35a.29.29,0,0,1-.1.23.28.28,0,0,1-.22.1.34.34,0,0,1-.33-.33Zm-4.24.43a2,2,0,0,1,.13-.71,1.48,1.48,0,0,1,.35-.55,1.59,1.59,0,0,1,.55-.36,1.88,1.88,0,0,1,.72-.13,1.8,1.8,0,0,1,.71.13,1.59,1.59,0,0,1,.55.36,1.48,1.48,0,0,1,.35.55,2,2,0,0,1,.13.71v.49a.46.46,0,0,1-.13.32.44.44,0,0,1-.32.13h-2.39v.53a1.18,1.18,0,0,0,.29.83,1.07,1.07,0,0,0,.81.32,2.1,2.1,0,0,0,.56-.08,3.35,3.35,0,0,0,.53-.19.31.31,0,0,1,.13,0,.32.32,0,0,1,.23.09.28.28,0,0,1,.09.22.28.28,0,0,1-.18.28,2.61,2.61,0,0,1-.66.24,4.05,4.05,0,0,1-.7.07,1.88,1.88,0,0,1-.72-.13,1.75,1.75,0,0,1-.55-.36,1.48,1.48,0,0,1-.35-.55,2,2,0,0,1-.13-.71Zm-10.86.09a2,2,0,0,1,.14-.75,1.75,1.75,0,0,1,.37-.58,1.67,1.67,0,0,1,.58-.38,2.2,2.2,0,0,1,1.49,0,1.67,1.67,0,0,1,.58.38,1.75,1.75,0,0,1,.37.58,2,2,0,0,1,.14.75v1.29a2,2,0,0,1-.14.75,1.75,1.75,0,0,1-.37.58,1.52,1.52,0,0,1-.58.37,2.05,2.05,0,0,1-1.49,0,1.52,1.52,0,0,1-.58-.37,1.75,1.75,0,0,1-.37-.58,2,2,0,0,1-.14-.75Zm-4.25-1.18A.41.41,0,0,1,205,21a.44.44,0,0,1,.22-.16,4.27,4.27,0,0,1,1.44-.24,1.8,1.8,0,0,1,.71.13,1.59,1.59,0,0,1,.55.36,1.48,1.48,0,0,1,.35.55,2,2,0,0,1,.12.71v1.47a2,2,0,0,1-.12.71,1.48,1.48,0,0,1-.35.55,1.75,1.75,0,0,1-.55.36,1.8,1.8,0,0,1-.71.13,2.12,2.12,0,0,1-.57-.08,2.44,2.44,0,0,1-.53-.21v2a.31.31,0,0,1-.09.22.3.3,0,0,1-.23.1.29.29,0,0,1-.23-.1.32.32,0,0,1-.1-.22Zm-5.2-.22s0,0,0,0V21a.33.33,0,0,1,.09-.22.26.26,0,0,1,.23-.1.38.38,0,0,1,.19.05.4.4,0,0,1,.12.16l1.3,3.73,1.13-3.72a.34.34,0,0,1,.11-.17.36.36,0,0,1,.2-.06.35.35,0,0,1,.23.09.29.29,0,0,1,.1.23.13.13,0,0,1,0,.06.11.11,0,0,1,0,.05l-1.7,5.38a1.69,1.69,0,0,1-.61.87,1.79,1.79,0,0,1-1.07.32.31.31,0,0,1-.22-.09.31.31,0,0,1,0-.44A.43.43,0,0,1,200,27a1.08,1.08,0,0,0,1.08-.76l.23-.75Zm-1.43-2a.34.34,0,0,1,.33-.33.34.34,0,0,1,.23.1.32.32,0,0,1,.09.23v6.22a.32.32,0,0,1-.09.23.3.3,0,0,1-.23.1.29.29,0,0,1-.23-.1.33.33,0,0,1-.1-.23Zm-8.64,1.9a.31.31,0,0,1,.09-.22.3.3,0,0,1,.23-.1.29.29,0,0,1,.23.1.32.32,0,0,1,.1.22v2.95a1,1,0,0,0,1.09,1.1,4,4,0,0,0,1.09-.16V20.94a.31.31,0,0,1,.09-.22.3.3,0,0,1,.23-.1.29.29,0,0,1,.23.1.28.28,0,0,1,.1.22v4a.47.47,0,0,1-.08.26.5.5,0,0,1-.22.16,4.23,4.23,0,0,1-.7.18,4.62,4.62,0,0,1-.74.06,1.61,1.61,0,0,1-1.74-1.75Zm-4.46,1.52a2,2,0,0,1,.13-.75,1.77,1.77,0,0,1,.38-.58,1.63,1.63,0,0,1,.57-.38,2.23,2.23,0,0,1,1.5,0,1.67,1.67,0,0,1,.58.38,1.75,1.75,0,0,1,.37.58,2,2,0,0,1,.13.75v1.29a2,2,0,0,1-.13.75,1.75,1.75,0,0,1-.37.58,1.52,1.52,0,0,1-.58.37,2.08,2.08,0,0,1-1.5,0,1.48,1.48,0,0,1-.57-.37,1.77,1.77,0,0,1-.38-.58,2,2,0,0,1-.13-.75Zm-2.76-.52a1.33,1.33,0,0,1,.1-.54,1.23,1.23,0,0,1,1.15-.78,3.39,3.39,0,0,1,.68.08.29.29,0,0,1,.19.11.31.31,0,0,1,.07.2.29.29,0,0,1-.09.22.33.33,0,0,1-.23.09h-.08l-.08,0-.23,0h-.23a.58.58,0,0,0-.43.18.68.68,0,0,0-.17.49v3.35a.33.33,0,0,1-.1.23.29.29,0,0,1-.23.1.3.3,0,0,1-.23-.1.32.32,0,0,1-.09-.23Zm-4.6-2.68a.44.44,0,0,1,.13-.32.44.44,0,0,1,.32-.13h1.51a1.92,1.92,0,0,1,1.4.53,2,2,0,0,1,.54,1.43,1.88,1.88,0,0,1-.51,1.38,2,2,0,0,1-1.43.52h-1.29v2.59a.29.29,0,0,1-.1.23.3.3,0,0,1-.23.1.34.34,0,0,1-.34-.33ZM46.36,56h-14V50.67h4.46l-1.59-6.15H25.85s-1.59,6.15-1.59,6.15h4V56H16.21V50.42h2.47l9-32.2h7.12l9.08,32.2h2.46Zm24.47,0H61V50.57h1.28V37.7c0-.82-.46-1.07-1.84-1.07a10.25,10.25,0,0,0-3.44.61V50.57h1.29V56H48.48V50.57h2V37h-2V31.55h7.23l.67,2.1a16.7,16.7,0,0,1,7.79-2.46c3.43,0,4.77,1.59,4.77,4.36v15h1.89Zm10.62.26a42.62,42.62,0,0,1-8.56-.72v-7h6.3v3.64a21.3,21.3,0,0,0,2.26.1c2.41,0,3-.31,3-2.46,0-1.89-.61-2.25-5-3.69C74,44.42,72.63,43,72.63,38.37c0-5.13,1.85-7.18,8.46-7.18a37,37,0,0,1,8.66.82v6.77h-6V35.34c-.25-.05-1.59-.1-2.41-.1-1.94,0-2.51.67-2.51,2.26,0,1.79.41,2.3,4.51,3.48,6.21,1.8,7.28,3.44,7.28,7.79C90.57,54.26,88.83,56.26,81.45,56.26Zm33.7-.26H106V51l-2.92-5.38-2,2v3.18h2.16V56H92.64V50.57h2V24h-2V18.48h8.46V42.57l5.69-6.25h-2.3V31.55h9.89V37H111.3l-3.64,3.89,5.44,9.64h2.05Zm23.2-19h-1.64l-7.12,22.14h2.35v5.33h-12V59.18h3.79s.77-2.25,1.08-3.48L118.1,37h-1.69V31.55h10.41v5.18h-2.16l2.16,7.33a46.58,46.58,0,0,1,1.38,5.64c.31-1.74.72-3.44,1.28-5.64l2-7.33h-1.95V31.55h8.82Zm27.58,19h-16.2V50.42h2.67V24.17h-2.67V18.48H165c7.69,0,9.54,2.25,9.54,9.64,0,5.38-1.34,7.69-5.44,8.4,4.46.62,6.46,2.26,6.46,9C175.52,52.72,173.67,56,165.93,56ZM195.3,40.47h-5.9V37.09a11.17,11.17,0,0,0-3,.51v13h2.71V56H177.81V50.57h1.95V37h-1.95V31.55H185l.77,2.46a21.42,21.42,0,0,1,9.49-3Zm1.11-14.94a4.52,4.52,0,0,1-.74.06,1.8,1.8,0,0,1-.71-.13,1.64,1.64,0,0,1-.55-.36,1.48,1.48,0,0,1-.35-.55,1.8,1.8,0,0,1-.13-.71V22.37a1.75,1.75,0,0,1,.47-1.28,1.71,1.71,0,0,1,1.27-.47,2.24,2.24,0,0,1,.57.08,2.36,2.36,0,0,1,.52.21V19a.34.34,0,0,1,.33-.33.34.34,0,0,1,.23.1.32.32,0,0,1,.09.23v5.89a.47.47,0,0,1-.08.26.5.5,0,0,1-.22.16A4.5,4.5,0,0,1,196.41,25.53Zm19.24,19.4H203.86c0,6.15.51,7.28,3,7.28a18.76,18.76,0,0,0,2.31-.1V48.57h6.3v7.07a51.66,51.66,0,0,1-8.61.67c-7.38,0-9.53-2.2-9.53-12.56S199.55,31,206.78,31c7.07,0,8.87,2.05,8.87,11.07Zm1.72-19.63-1-3.48-.95,3.48a.39.39,0,0,1-.14.21.38.38,0,0,1-.23.08.41.41,0,0,1-.24-.08.39.39,0,0,1-.13-.2L213.45,21a.2.2,0,0,1,0-.1.37.37,0,0,1,.08-.21.3.3,0,0,1,.24-.1.36.36,0,0,1,.2.06.3.3,0,0,1,.12.17l1,3.55,1-3.5a.43.43,0,0,1,.14-.21.38.38,0,0,1,.23-.08.41.41,0,0,1,.24.08.42.42,0,0,1,.13.21l1,3.5,1-3.55a.3.3,0,0,1,.12-.17.33.33,0,0,1,.19-.06.33.33,0,0,1,.23.09.32.32,0,0,1,.1.22.44.44,0,0,1,0,.1l-1.27,4.27a.39.39,0,0,1-.13.2.38.38,0,0,1-.23.08.41.41,0,0,1-.24-.08A.38.38,0,0,1,217.37,25.3ZM247.81,37h-1.9l-4.25,19.07h-5.79l-1.9-7.8c-.46-2-.82-3.53-1.08-5.17a35.19,35.19,0,0,1-1.18,5.22l-2.1,7.75h-5.84L219.41,37h-1.9V31.55h10.21v5.18h-2.16L226.79,43c.41,2.1.72,3.9.88,5.33A47.08,47.08,0,0,1,228.9,43l2.3-8h4.51L238,43c.56,2.05,1.08,4.05,1.28,5.33.1-1.23.46-3.23.82-5.33l1.13-6.25h-2.31V31.55h8.87Zm1.65-17.65a3.87,3.87,0,0,1,.25-1.43,3,3,0,0,1,.71-1.11,3.07,3.07,0,0,1,1.1-.71,3.9,3.9,0,0,1,3.5.38.67.67,0,0,1,.33.58.65.65,0,0,1-.2.47.72.72,0,0,1-.5.2.78.78,0,0,1-.37-.11,3.62,3.62,0,0,0-.65-.33,2,2,0,0,0-.69-.12,1.94,1.94,0,0,0-1.52.6,2.29,2.29,0,0,0-.53,1.58v2.74a2.3,2.3,0,0,0,.53,1.58,2.17,2.17,0,0,0,2.2.47,4.05,4.05,0,0,0,.65-.34.67.67,0,0,1,.39-.12.73.73,0,0,1,.48.19.64.64,0,0,1,.21.49A.67.67,0,0,1,255,25a3.71,3.71,0,0,1-2.08.64,4,4,0,0,1-1.42-.25,3.07,3.07,0,0,1-1.1-.71,3.2,3.2,0,0,1-.71-1.11,3.87,3.87,0,0,1-.25-1.43Zm18.45,25.54H256.12c.05,6.15.51,7.28,3,7.28a18.76,18.76,0,0,0,2.31-.1V48.57h6.3v7.07a51.66,51.66,0,0,1-8.61.67c-7.38,0-9.53-2.2-9.53-12.56S251.81,31,259,31c7.07,0,8.87,2.05,8.87,11.07Zm1.4-20a.68.68,0,0,1-.68.7.7.7,0,0,1-.71-.7v-7a2,2,0,0,1,.16-.78,1.9,1.9,0,0,1,.43-.64,2.32,2.32,0,0,1,.64-.43,1.92,1.92,0,0,1,.79-.16l.4,0,.41.05a.63.63,0,0,1,.42.23.68.68,0,0,1,.16.44.59.59,0,0,1-.2.45.65.65,0,0,1-.48.19l-.12,0-.12,0-.18,0h-.29a.58.58,0,0,0-.44.17.59.59,0,0,0-.19.43v.85h1.33a.7.7,0,0,1,.49.19.66.66,0,0,1,.2.48.63.63,0,0,1-.21.48.68.68,0,0,1-.48.18h-1.33Zm18.21,15.54h-5.89V37.09a11.3,11.3,0,0,0-3,.51v13h2.72V56H270V50.57H272V37H270V31.55h7.23L278,34a21.42,21.42,0,0,1,9.48-3Zm-.47-14.84a2.57,2.57,0,0,1-2.7-2.72v-1.7a2.57,2.57,0,0,1,2.7-2.7,2.58,2.58,0,0,1,2,.76,2.47,2.47,0,0,1,.56.85,2.94,2.94,0,0,1,.2,1.09v.64a.85.85,0,0,1-.26.62.84.84,0,0,1-.62.25h-3.15a2.8,2.8,0,0,0,.07.7,1.34,1.34,0,0,0,.2.47,1.23,1.23,0,0,0,1,.45,2.66,2.66,0,0,0,.75-.1,5,5,0,0,0,.71-.25.83.83,0,0,1,.28-.06.67.67,0,0,1,.46.18.56.56,0,0,1,.2.45.69.69,0,0,1-.08.35.53.53,0,0,1-.27.26A4.77,4.77,0,0,1,287.05,25.63ZM311.2,37h-1.64l-7.13,22.14h2.36v5.33H292.74V59.18h3.8s.77-2.25,1.07-3.48L291,37h-1.69V31.55h10.4v5.18h-2.15l2.15,7.33a46.79,46.79,0,0,1,1.39,5.64c.31-1.74.72-3.44,1.28-5.64l2-7.33h-1.95V31.55h8.82Zm.1-12.11a.72.72,0,0,1-.2.5.66.66,0,0,1-.49.2.72.72,0,0,1-.5-.2.68.68,0,0,1-.2-.5V19.21a.66.66,0,0,1,.2-.5.72.72,0,0,1,.5-.2.66.66,0,0,1,.49.2.7.7,0,0,1,.2.5Zm-.14-7.7a.76.76,0,0,1-.55.23.79.79,0,0,1-.79-.79.76.76,0,0,1,.23-.55.79.79,0,0,1,.56-.23.79.79,0,0,1,.78.78A.79.79,0,0,1,311.16,17.23ZM394,73.46a6.47,6.47,0,0,1-6.46,6.46H326.92V2.82h60.65A6.47,6.47,0,0,1,394,9.28Z"/><path class="cls-1" d="M180.72,21.69a1.23,1.23,0,0,0,.33-.92,1.31,1.31,0,0,0-.36-1,1.28,1.28,0,0,0-.94-.35h-1.27V22h1.27A1.34,1.34,0,0,0,180.72,21.69Z"/><path class="cls-1" d="M281,19.54a1.16,1.16,0,0,0,.4-.9,1.33,1.33,0,0,0-.3-.93,1.22,1.22,0,0,0-.92-.32h-1.65V19.9H280A1.49,1.49,0,0,0,281,19.54Z"/><path class="cls-1" d="M211,25a1.18,1.18,0,0,0,.87-.32,1.21,1.21,0,0,0,.31-.87V22.41a1.21,1.21,0,0,0-.31-.87,1.36,1.36,0,0,0-1.75,0,1.21,1.21,0,0,0-.31.87V23.8a1.21,1.21,0,0,0,.31.87A1.19,1.19,0,0,0,211,25Z"/><path class="cls-1" d="M293.68,19.79a1.22,1.22,0,0,0-1,.4,2,2,0,0,0-.33,1.25H295C295,20.34,294.56,19.79,293.68,19.79Z"/><path class="cls-1" d="M281.35,23.75a1.53,1.53,0,0,0,.35-1.07,1.3,1.3,0,0,0-.12-.55,1.45,1.45,0,0,0-.33-.45,1.81,1.81,0,0,0-.51-.3,1.71,1.71,0,0,0-.65-.12h-1.52v2.87h1.74A1.35,1.35,0,0,0,281.35,23.75Z"/><path class="cls-1" d="M206.65,25a1.09,1.09,0,0,0,.8-.29,1.13,1.13,0,0,0,.29-.81V22.32a1.11,1.11,0,0,0-.29-.81,1.09,1.09,0,0,0-.8-.29,4.12,4.12,0,0,0-1.1.16v3.23a1.3,1.3,0,0,0,.51.29A2,2,0,0,0,206.65,25Z"/><path class="cls-1" d="M222.85,22.32a1.11,1.11,0,0,0-.29-.81,1.09,1.09,0,0,0-.8-.29,1.13,1.13,0,0,0-.81.29,1.11,1.11,0,0,0-.29.81v.39h2.19Z"/><path class="cls-1" d="M238.83,24.7a1.13,1.13,0,0,0,.28-.81V22.32a1,1,0,0,0-1.09-1.1,2,2,0,0,0-.59.09,1.1,1.1,0,0,0-.5.29v3.23A4,4,0,0,0,238,25,1.11,1.11,0,0,0,238.83,24.7Z"/><path class="cls-1" d="M229.87,22.32a1.11,1.11,0,0,0-.29-.81,1.07,1.07,0,0,0-.8-.29,1.09,1.09,0,0,0-.8.29,1.07,1.07,0,0,0-.29.81v.39h2.18Z"/><path class="cls-1" d="M233,25a4.12,4.12,0,0,0,1.1-.16V21.6a1.19,1.19,0,0,0-.51-.29,2,2,0,0,0-.59-.09,1.09,1.09,0,0,0-.8.29,1.11,1.11,0,0,0-.29.81v1.57a1.13,1.13,0,0,0,.29.81A1.09,1.09,0,0,0,233,25Z"/><path class="cls-1" d="M187,25a1.15,1.15,0,0,0,.87-.32,1.17,1.17,0,0,0,.31-.87V22.41a1.17,1.17,0,0,0-.31-.87,1.15,1.15,0,0,0-.87-.32,1.09,1.09,0,0,0-1.18,1.19V23.8A1.09,1.09,0,0,0,187,25Z"/><path class="cls-1" d="M306.19,20.31a1.15,1.15,0,0,0,.46-.22,1.1,1.1,0,0,0,.33-.45,1.7,1.7,0,0,0,.13-.73,1.59,1.59,0,0,0-.37-1.12,1.34,1.34,0,0,0-1.06-.4H304v3h1.7A2.22,2.22,0,0,0,306.19,20.31Z"/><path class="cls-1" d="M195.67,21.22a1.07,1.07,0,0,0-.8.29,1.11,1.11,0,0,0-.29.81v1.57a1.13,1.13,0,0,0,.29.81,1.07,1.07,0,0,0,.8.29,4,4,0,0,0,1.09-.16V21.6a1.1,1.1,0,0,0-.5-.29A2,2,0,0,0,195.67,21.22Z"/><path class="cls-1" d="M287.05,19.79a1.22,1.22,0,0,0-1,.4,2,2,0,0,0-.33,1.25h2.63Q288.37,19.79,287.05,19.79Z"/><path class="cls-1" d="M262.8,22.66a.89.89,0,0,0-.37.25.62.62,0,0,0-.15.29,1.2,1.2,0,0,0,0,.23,1.49,1.49,0,0,0,0,.25.71.71,0,0,0,.15.3,1,1,0,0,0,.37.26,1.83,1.83,0,0,0,.69.1,5.63,5.63,0,0,0,.71,0,6.32,6.32,0,0,0,.68-.13V22.56h-1.39A2.06,2.06,0,0,0,262.8,22.66Z"/><path class="cls-3" d="M178.15,25.59a.3.3,0,0,0,.23-.1.29.29,0,0,0,.1-.23V22.67h1.29a2,2,0,0,0,1.43-.52,1.88,1.88,0,0,0,.51-1.38,2,2,0,0,0-.54-1.43,1.92,1.92,0,0,0-1.4-.53h-1.51a.44.44,0,0,0-.32.13.44.44,0,0,0-.13.32v6a.34.34,0,0,0,.34.33Zm.33-6.14h1.27a1.28,1.28,0,0,1,.94.35,1.31,1.31,0,0,1,.36,1,1.23,1.23,0,0,1-.33.92,1.34,1.34,0,0,1-1,.34h-1.27Z"/><path class="cls-3" d="M182.73,25.59a.29.29,0,0,0,.23-.1.33.33,0,0,0,.1-.23V21.91a.68.68,0,0,1,.17-.49.58.58,0,0,1,.43-.18h.23l.23,0,.08,0h.08a.33.33,0,0,0,.23-.09.29.29,0,0,0,.09-.22.31.31,0,0,0-.07-.2.29.29,0,0,0-.19-.11,3.39,3.39,0,0,0-.68-.08,1.21,1.21,0,0,0-1.15.78,1.33,1.33,0,0,0-.1.54v3.32a.32.32,0,0,0,.09.23A.3.3,0,0,0,182.73,25.59Z"/><path class="cls-3" d="M185.68,25.08a1.48,1.48,0,0,0,.57.37,2.08,2.08,0,0,0,1.5,0,1.52,1.52,0,0,0,.58-.37,1.75,1.75,0,0,0,.37-.58,2,2,0,0,0,.13-.75V22.46a2,2,0,0,0-.13-.75,1.75,1.75,0,0,0-.37-.58,1.67,1.67,0,0,0-.58-.38,2.23,2.23,0,0,0-1.5,0,1.63,1.63,0,0,0-.57.38,1.77,1.77,0,0,0-.38.58,2,2,0,0,0-.13.75v1.29a2,2,0,0,0,.13.75A1.77,1.77,0,0,0,185.68,25.08Zm.14-2.67A1.09,1.09,0,0,1,187,21.22a1.15,1.15,0,0,1,.87.32,1.17,1.17,0,0,1,.31.87V23.8a1.17,1.17,0,0,1-.31.87A1.15,1.15,0,0,1,187,25a1.09,1.09,0,0,1-1.18-1.19Z"/><path class="cls-3" d="M191.37,25.59a4.62,4.62,0,0,0,.74-.06,4.23,4.23,0,0,0,.7-.18.5.5,0,0,0,.22-.16.47.47,0,0,0,.08-.26v-4a.28.28,0,0,0-.1-.22.29.29,0,0,0-.23-.1.3.3,0,0,0-.23.1.31.31,0,0,0-.09.22v3.89a4,4,0,0,1-1.09.16,1,1,0,0,1-1.09-1.1V20.94a.32.32,0,0,0-.1-.22.29.29,0,0,0-.23-.1.3.3,0,0,0-.23.1.31.31,0,0,0-.09.22v2.9a1.61,1.61,0,0,0,1.74,1.75Z"/><path class="cls-3" d="M197.41,24.93V19a.32.32,0,0,0-.09-.23.34.34,0,0,0-.23-.1.34.34,0,0,0-.33.33v1.87a2.36,2.36,0,0,0-.52-.21,2.24,2.24,0,0,0-.57-.08,1.71,1.71,0,0,0-1.27.47,1.75,1.75,0,0,0-.47,1.28v1.47a1.8,1.8,0,0,0,.13.71,1.48,1.48,0,0,0,.35.55,1.64,1.64,0,0,0,.55.36,1.8,1.8,0,0,0,.71.13,4.29,4.29,0,0,0,1.44-.24.5.5,0,0,0,.22-.16A.47.47,0,0,0,197.41,24.93Zm-.65-.1a4,4,0,0,1-1.09.16,1.07,1.07,0,0,1-.8-.29,1.13,1.13,0,0,1-.29-.81V22.32a1.11,1.11,0,0,1,.29-.81,1.07,1.07,0,0,1,.8-.29,2,2,0,0,1,.59.09,1.1,1.1,0,0,1,.5.29Z"/><path class="cls-3" d="M198.6,25.59a.3.3,0,0,0,.23-.1.32.32,0,0,0,.09-.23V19a.32.32,0,0,0-.09-.23.34.34,0,0,0-.23-.1.34.34,0,0,0-.33.33v6.22a.33.33,0,0,0,.1.23A.29.29,0,0,0,198.6,25.59Z"/><path class="cls-3" d="M200,27a.43.43,0,0,0-.22.09.31.31,0,0,0,0,.44.31.31,0,0,0,.22.09,1.79,1.79,0,0,0,1.07-.32,1.69,1.69,0,0,0,.61-.87l1.7-5.38a.11.11,0,0,0,0-.05.13.13,0,0,0,0-.06.29.29,0,0,0-.1-.23.35.35,0,0,0-.23-.09.36.36,0,0,0-.2.06.34.34,0,0,0-.11.17l-1.13,3.72-1.3-3.73a.4.4,0,0,0-.12-.16.38.38,0,0,0-.19-.05.26.26,0,0,0-.23.1.33.33,0,0,0-.09.22V21s0,0,0,0l1.59,4.43-.23.75A1.08,1.08,0,0,1,200,27Z"/><path class="cls-3" d="M205.23,27.62a.3.3,0,0,0,.23-.1.31.31,0,0,0,.09-.22v-2a2.44,2.44,0,0,0,.53.21,2.12,2.12,0,0,0,.57.08,1.8,1.8,0,0,0,.71-.13,1.75,1.75,0,0,0,.55-.36,1.48,1.48,0,0,0,.35-.55,2,2,0,0,0,.12-.71V22.37a2,2,0,0,0-.12-.71,1.48,1.48,0,0,0-.35-.55,1.59,1.59,0,0,0-.55-.36,1.8,1.8,0,0,0-.71-.13,4.27,4.27,0,0,0-1.44.24A.44.44,0,0,0,205,21a.41.41,0,0,0-.09.26v6a.32.32,0,0,0,.1.22A.29.29,0,0,0,205.23,27.62Zm.32-6.24a4.12,4.12,0,0,1,1.1-.16,1.09,1.09,0,0,1,.8.29,1.11,1.11,0,0,1,.29.81v1.57a1.13,1.13,0,0,1-.29.81,1.09,1.09,0,0,1-.8.29,2,2,0,0,1-.59-.09,1.3,1.3,0,0,1-.51-.29Z"/><path class="cls-3" d="M209.66,25.08a1.52,1.52,0,0,0,.58.37,2.05,2.05,0,0,0,1.49,0,1.52,1.52,0,0,0,.58-.37,1.75,1.75,0,0,0,.37-.58,2,2,0,0,0,.14-.75V22.46a2,2,0,0,0-.14-.75,1.75,1.75,0,0,0-.37-.58,1.67,1.67,0,0,0-.58-.38,2.2,2.2,0,0,0-1.49,0,1.67,1.67,0,0,0-.58.38,1.75,1.75,0,0,0-.37.58,2,2,0,0,0-.14.75v1.29a2,2,0,0,0,.14.75A1.75,1.75,0,0,0,209.66,25.08Zm.14-2.67a1.21,1.21,0,0,1,.31-.87,1.36,1.36,0,0,1,1.75,0,1.21,1.21,0,0,1,.31.87V23.8a1.21,1.21,0,0,1-.31.87,1.36,1.36,0,0,1-1.75,0,1.21,1.21,0,0,1-.31-.87Z"/><path class="cls-3" d="M218,25.51a.39.39,0,0,0,.13-.2L219.37,21a.44.44,0,0,0,0-.1.32.32,0,0,0-.1-.22.33.33,0,0,0-.23-.09.33.33,0,0,0-.19.06.3.3,0,0,0-.12.17l-1,3.55-1-3.5a.42.42,0,0,0-.13-.21.41.41,0,0,0-.24-.08.38.38,0,0,0-.23.08.43.43,0,0,0-.14.21l-1,3.5-1-3.55a.3.3,0,0,0-.12-.17.36.36,0,0,0-.2-.06.3.3,0,0,0-.24.1.37.37,0,0,0-.08.21.2.2,0,0,0,0,.1l1.27,4.27a.39.39,0,0,0,.13.2.41.41,0,0,0,.24.08.38.38,0,0,0,.23-.08.39.39,0,0,0,.14-.21l.95-3.48,1,3.48a.38.38,0,0,0,.13.21.41.41,0,0,0,.24.08A.38.38,0,0,0,218,25.51Z"/><path class="cls-3" d="M220.49,25.1a1.75,1.75,0,0,0,.55.36,1.88,1.88,0,0,0,.72.13,4.05,4.05,0,0,0,.7-.07,2.61,2.61,0,0,0,.66-.24.28.28,0,0,0,.18-.28.28.28,0,0,0-.09-.22.32.32,0,0,0-.23-.09.31.31,0,0,0-.13,0,3.35,3.35,0,0,1-.53.19,2.1,2.1,0,0,1-.56.08,1.07,1.07,0,0,1-.81-.32,1.18,1.18,0,0,1-.29-.83v-.53h2.39a.44.44,0,0,0,.32-.13.46.46,0,0,0,.13-.32v-.49a2,2,0,0,0-.13-.71,1.48,1.48,0,0,0-.35-.55,1.59,1.59,0,0,0-.55-.36,1.8,1.8,0,0,0-.71-.13,1.88,1.88,0,0,0-.72.13,1.59,1.59,0,0,0-.55.36,1.48,1.48,0,0,0-.35.55,2,2,0,0,0-.13.71v1.47a2,2,0,0,0,.13.71A1.48,1.48,0,0,0,220.49,25.1Zm.17-2.78a1.11,1.11,0,0,1,.29-.81,1.13,1.13,0,0,1,.81-.29,1.09,1.09,0,0,1,.8.29,1.11,1.11,0,0,1,.29.81v.39h-2.19Z"/><path class="cls-3" d="M224.58,25.59a.28.28,0,0,0,.22-.1.29.29,0,0,0,.1-.23V21.91a.64.64,0,0,1,.18-.49.56.56,0,0,1,.42-.18h.23l.23,0,.08,0h.08a.32.32,0,0,0,.23-.09.29.29,0,0,0,.09-.22.31.31,0,0,0-.07-.2.27.27,0,0,0-.18-.11,3.4,3.4,0,0,0-.69-.08,1.19,1.19,0,0,0-.49.1,1.16,1.16,0,0,0-.39.26,1.51,1.51,0,0,0-.27.42,1.33,1.33,0,0,0-.1.54v3.32a.34.34,0,0,0,.33.33Z"/><path class="cls-3" d="M227.51,25.1a1.79,1.79,0,0,0,1.27.49,4,4,0,0,0,.7-.07,2.83,2.83,0,0,0,.67-.24.28.28,0,0,0,.18-.28.29.29,0,0,0-.1-.22.32.32,0,0,0-.23-.09.31.31,0,0,0-.13,0,3.35,3.35,0,0,1-.53.19,2.1,2.1,0,0,1-.56.08,1,1,0,0,1-.8-.32,1.14,1.14,0,0,1-.29-.83v-.53h2.38a.42.42,0,0,0,.32-.13.46.46,0,0,0,.13-.32v-.49a1.76,1.76,0,0,0-.13-.71,1.48,1.48,0,0,0-.35-.55,1.5,1.5,0,0,0-.55-.36,2,2,0,0,0-1.42,0,1.63,1.63,0,0,0-.56.36,1.48,1.48,0,0,0-.35.55,2,2,0,0,0-.12.71v1.47a2,2,0,0,0,.12.71A1.48,1.48,0,0,0,227.51,25.1Zm.18-2.78a1.07,1.07,0,0,1,.29-.81,1.09,1.09,0,0,1,.8-.29,1.07,1.07,0,0,1,.8.29,1.11,1.11,0,0,1,.29.81v.39h-2.18Z"/><path class="cls-3" d="M231.75,25.1a1.75,1.75,0,0,0,.55.36,1.8,1.8,0,0,0,.71.13,4.52,4.52,0,0,0,.74-.06,4.23,4.23,0,0,0,.7-.18.5.5,0,0,0,.22-.16.4.4,0,0,0,.08-.26V19a.32.32,0,0,0-.09-.23.34.34,0,0,0-.23-.1.33.33,0,0,0-.23.1.32.32,0,0,0-.09.23v1.87a2.44,2.44,0,0,0-.53-.21,2.12,2.12,0,0,0-.57-.08,1.71,1.71,0,0,0-1.27.47,1.75,1.75,0,0,0-.47,1.28v1.47a1.8,1.8,0,0,0,.13.71A1.48,1.48,0,0,0,231.75,25.1Zm.17-2.78a1.11,1.11,0,0,1,.29-.81,1.09,1.09,0,0,1,.8-.29,2,2,0,0,1,.59.09,1.19,1.19,0,0,1,.51.29v3.23A4.12,4.12,0,0,1,233,25a1.09,1.09,0,0,1-.8-.29,1.13,1.13,0,0,1-.29-.81Z"/><path class="cls-3" d="M236.58,25.35a4.41,4.41,0,0,0,1.44.24,1.8,1.8,0,0,0,.71-.13,1.64,1.64,0,0,0,.55-.36,1.5,1.5,0,0,0,.36-.55,2,2,0,0,0,.12-.71V22.37a1.75,1.75,0,0,0-.47-1.28,1.71,1.71,0,0,0-1.27-.47,2.24,2.24,0,0,0-.57.08,2.36,2.36,0,0,0-.52.21V19a.29.29,0,0,0-.1-.23.33.33,0,0,0-.23-.1.34.34,0,0,0-.23.1.32.32,0,0,0-.09.23v5.89a.41.41,0,0,0,.09.26A.47.47,0,0,0,236.58,25.35Zm.35-3.75a1.1,1.1,0,0,1,.5-.29,2,2,0,0,1,.59-.09,1,1,0,0,1,1.09,1.1v1.57A1,1,0,0,1,238,25a4,4,0,0,1-1.09-.16Z"/><path class="cls-3" d="M240.69,27a.43.43,0,0,0-.23.09.31.31,0,0,0,0,.44.32.32,0,0,0,.23.09,1.75,1.75,0,0,0,1.06-.32,1.64,1.64,0,0,0,.61-.87l1.7-5.38s0,0,0-.05v-.06a.29.29,0,0,0-.1-.23.33.33,0,0,0-.23-.09.31.31,0,0,0-.19.06.3.3,0,0,0-.12.17l-1.12,3.72L241,20.84a.33.33,0,0,0-.12-.16.35.35,0,0,0-.18-.05.27.27,0,0,0-.24.1.33.33,0,0,0-.09.22.13.13,0,0,0,0,.06.11.11,0,0,0,0,0L242,25.49l-.23.75A1.07,1.07,0,0,1,240.69,27Z"/><path class="cls-4" d="M250.42,24.67a3.07,3.07,0,0,0,1.1.71,4,4,0,0,0,1.42.25A3.71,3.71,0,0,0,255,25a.67.67,0,0,0,.33-.59.64.64,0,0,0-.21-.49.73.73,0,0,0-.48-.19.67.67,0,0,0-.39.12,4.05,4.05,0,0,1-.65.34,2.17,2.17,0,0,1-2.2-.47,2.3,2.3,0,0,1-.53-1.58V19.39a2.29,2.29,0,0,1,.53-1.58,1.94,1.94,0,0,1,1.52-.6,2,2,0,0,1,.69.12,3.62,3.62,0,0,1,.65.33.78.78,0,0,0,.37.11.72.72,0,0,0,.5-.2.65.65,0,0,0,.2-.47.67.67,0,0,0-.33-.58,3.9,3.9,0,0,0-3.5-.38,3.07,3.07,0,0,0-1.1.71,3,3,0,0,0-.71,1.11,3.87,3.87,0,0,0-.25,1.43v2.74a3.87,3.87,0,0,0,.25,1.43A3.2,3.2,0,0,0,250.42,24.67Z"/><path class="cls-4" d="M257.27,25.63a.66.66,0,0,0,.48-.2.69.69,0,0,0,.21-.5V20.41a.63.63,0,0,1,.62-.62,1.29,1.29,0,0,1,.33,0l.34.07.12,0h.11a.63.63,0,0,0,.66-.65.68.68,0,0,0-.15-.43.71.71,0,0,0-.4-.23,5.36,5.36,0,0,0-1-.11,2.07,2.07,0,0,0-.8.15,2,2,0,0,0-.63.43,1.76,1.76,0,0,0-.43.64,2,2,0,0,0-.16.79v4.41a.7.7,0,0,0,.71.7Z"/><path class="cls-4" d="M263.49,21.28a2.93,2.93,0,0,0-1.93.59,1.92,1.92,0,0,0-.7,1.56,2,2,0,0,0,.7,1.6,2.88,2.88,0,0,0,1.93.6,7.08,7.08,0,0,0,1.13-.09,6.84,6.84,0,0,0,1.06-.26.88.88,0,0,0,.43-.32.85.85,0,0,0,.17-.51V20.81a2.58,2.58,0,0,0-.16-.87,2,2,0,0,0-.45-.73,1.89,1.89,0,0,0-.72-.51,2.49,2.49,0,0,0-1-.19,6.48,6.48,0,0,0-1.26.11,4,4,0,0,0-1.08.43.59.59,0,0,0-.25.27.7.7,0,0,0-.09.35.55.55,0,0,0,.2.43.67.67,0,0,0,.84.06,2.23,2.23,0,0,1,.67-.29,3.5,3.5,0,0,1,.79-.08,1.16,1.16,0,0,1,.83.29,1,1,0,0,1,.29.73v.47Zm1.39,2.89a6.32,6.32,0,0,1-.68.13,5.63,5.63,0,0,1-.71,0,1.83,1.83,0,0,1-.69-.1,1,1,0,0,1-.37-.26.71.71,0,0,1-.15-.3,1.49,1.49,0,0,1,0-.25,1.2,1.2,0,0,1,0-.23.62.62,0,0,1,.15-.29.89.89,0,0,1,.37-.25,2.06,2.06,0,0,1,.69-.1h1.39Z"/><path class="cls-4" d="M271.12,19.79a.63.63,0,0,0,.21-.48.66.66,0,0,0-.2-.48.7.7,0,0,0-.49-.19h-1.33v-.85a.59.59,0,0,1,.19-.43.58.58,0,0,1,.44-.17h.29l.18,0,.12,0,.12,0a.65.65,0,0,0,.48-.19.59.59,0,0,0,.2-.45.68.68,0,0,0-.16-.44.63.63,0,0,0-.42-.23l-.41-.05-.4,0a1.92,1.92,0,0,0-.79.16,2.32,2.32,0,0,0-.64.43,1.9,1.9,0,0,0-.43.64,2,2,0,0,0-.16.78v7a.7.7,0,0,0,.71.7.68.68,0,0,0,.68-.7V20h1.33A.68.68,0,0,0,271.12,19.79Z"/><path class="cls-4" d="M273,25a1.76,1.76,0,0,0,.64.43,1.85,1.85,0,0,0,.78.16,4.43,4.43,0,0,0,.8-.08.86.86,0,0,0,.42-.23.58.58,0,0,0,.17-.44.57.57,0,0,0-.21-.47.67.67,0,0,0-.46-.17.44.44,0,0,0-.17,0l-.14,0-.17,0h-.24a.52.52,0,0,1-.44-.22.94.94,0,0,1-.18-.61V20h1.31a.72.72,0,0,0,.51-.18.64.64,0,0,0,.19-.49.62.62,0,0,0-.2-.48.72.72,0,0,0-.5-.19h-1.31V16.59a.7.7,0,1,0-1.39,0v6.93a2.35,2.35,0,0,0,.15.86A1.91,1.91,0,0,0,273,25Z"/><path class="cls-4" d="M278,25.49h2.3a3.11,3.11,0,0,0,1.16-.2,2.49,2.49,0,0,0,1.46-1.45,3.07,3.07,0,0,0,.2-1.16,2.75,2.75,0,0,0-.27-1.18,2.51,2.51,0,0,0-.89-1,2.3,2.3,0,0,0,.68-.86,2.38,2.38,0,0,0,.23-1,3,3,0,0,0-.19-1.06,2.39,2.39,0,0,0-.54-.83,2.57,2.57,0,0,0-.85-.54,3.14,3.14,0,0,0-1.08-.19H278a.85.85,0,0,0-.62.26.82.82,0,0,0-.25.61v7.74a.85.85,0,0,0,.87.86Zm.56-8.1h1.65a1.22,1.22,0,0,1,.92.32,1.33,1.33,0,0,1,.3.93,1.16,1.16,0,0,1-.4.9,1.49,1.49,0,0,1-1,.36h-1.44Zm0,3.87h1.52a1.71,1.71,0,0,1,.65.12,1.81,1.81,0,0,1,.51.3,1.45,1.45,0,0,1,.33.45,1.3,1.3,0,0,1,.12.55,1.53,1.53,0,0,1-.35,1.07,1.35,1.35,0,0,1-1,.38h-1.74Z"/><path class="cls-4" d="M289.37,24.91a.69.69,0,0,0,.08-.35.56.56,0,0,0-.2-.45.67.67,0,0,0-.46-.18.83.83,0,0,0-.28.06,5,5,0,0,1-.71.25,2.66,2.66,0,0,1-.75.1,1.23,1.23,0,0,1-1-.45,1.34,1.34,0,0,1-.2-.47,2.8,2.8,0,0,1-.07-.7h3.15a.84.84,0,0,0,.62-.25.85.85,0,0,0,.26-.62v-.64a2.94,2.94,0,0,0-.2-1.09,2.47,2.47,0,0,0-.56-.85,2.58,2.58,0,0,0-2-.76,2.57,2.57,0,0,0-2.7,2.7v1.7a2.57,2.57,0,0,0,2.7,2.72,4.77,4.77,0,0,0,2.05-.46A.53.53,0,0,0,289.37,24.91Zm-3.3-4.72a1.22,1.22,0,0,1,1-.4q1.32,0,1.32,1.65h-2.63A2,2,0,0,1,286.07,20.19Z"/><path class="cls-4" d="M293.68,25.63a4.81,4.81,0,0,0,2.06-.46.62.62,0,0,0,.27-.26.82.82,0,0,0,.08-.35.57.57,0,0,0-.21-.45.65.65,0,0,0-.46-.18.83.83,0,0,0-.28.06,4.61,4.61,0,0,1-.71.25,2.66,2.66,0,0,1-.75.1,1.24,1.24,0,0,1-1-.45,1.34,1.34,0,0,1-.2-.47,2.8,2.8,0,0,1-.07-.7h3.15a.84.84,0,0,0,.62-.25.85.85,0,0,0,.26-.62v-.64a2.94,2.94,0,0,0-.2-1.09,2.47,2.47,0,0,0-.56-.85,2.58,2.58,0,0,0-2-.76,2.57,2.57,0,0,0-2.7,2.7v1.7a2.57,2.57,0,0,0,2.7,2.72Zm-1-5.44a1.22,1.22,0,0,1,1-.4c.88,0,1.33.55,1.33,1.65h-2.64A2,2,0,0,1,292.7,20.19Z"/><path class="cls-4" d="M298.56,25.63a.66.66,0,0,0,.48-.2.69.69,0,0,0,.21-.5V20.41a.63.63,0,0,1,.62-.62,1.37,1.37,0,0,1,.34,0l.33.07.13,0h.1a.65.65,0,0,0,.67-.65.69.69,0,0,0-.16-.43.68.68,0,0,0-.4-.23,5.36,5.36,0,0,0-1-.11,2.07,2.07,0,0,0-.8.15,2.13,2.13,0,0,0-.63.43,2.06,2.06,0,0,0-.43.64,2,2,0,0,0-.15.79v4.41a.68.68,0,0,0,.2.5A.69.69,0,0,0,298.56,25.63Z"/><path class="cls-4" d="M303.26,25.63a.69.69,0,0,0,.5-.21.7.7,0,0,0,.22-.51V21.74h1.7a3.34,3.34,0,0,0,1.17-.2,2.68,2.68,0,0,0,.91-.58,2.59,2.59,0,0,0,.58-.89,3.28,3.28,0,0,0,.2-1.16,3.22,3.22,0,0,0-.21-1.18,2.56,2.56,0,0,0-.59-.91,2.66,2.66,0,0,0-.9-.59,3.11,3.11,0,0,0-1.16-.21h-2.26a.85.85,0,0,0-.62.26.83.83,0,0,0-.26.61v8a.72.72,0,0,0,.72.72Zm.72-8.24h1.7a1.34,1.34,0,0,1,1.06.4,1.59,1.59,0,0,1,.37,1.12,1.7,1.7,0,0,1-.13.73,1.1,1.1,0,0,1-.33.45,1.15,1.15,0,0,1-.46.22,2.22,2.22,0,0,1-.51.06H304Z"/><path class="cls-4" d="M310.61,18.51a.72.72,0,0,0-.5.2.66.66,0,0,0-.2.5v5.72a.68.68,0,0,0,.2.5.72.72,0,0,0,.5.2.66.66,0,0,0,.49-.2.72.72,0,0,0,.2-.5V19.21a.7.7,0,0,0-.2-.5A.66.66,0,0,0,310.61,18.51Z"/><path class="cls-4" d="M310.61,15.89a.79.79,0,0,0-.56.23.76.76,0,0,0-.23.55.79.79,0,0,0,.79.79.76.76,0,0,0,.55-.23.79.79,0,0,0,.23-.56.79.79,0,0,0-.78-.78Z"/></g></g></svg>